PathFileType	4	(X/Y/Z)	/Users/niels/Desktop/University/Third Semester/Perception and Action/Exam/Gymnastics Motion Tracking/Code for Gym Tracking/Analyzed Data/Backflip/backflip_good_idn_2_Sports2D/backflip_good_idn_2_Sports2D_px_person00.trc
DataRate	CameraRate	NumFrames	NumMarkers	Units	OrigDataRate	OrigDataStartFrame	OrigNumFrames
59.762675296655885	59.762675296655885	10	22	m	59.762675296655885	34	278
Frame#	Time	Hip			RHip			RKnee			RAnkle			RBigToe			RSmallToe			RHeel			LHip			LKnee			LAnkle			LBigToe			LSmallToe			LHeel			Neck			Head			Nose			RShoulder			RElbow			RWrist			LShoulder			LElbow			LWrist		
		X1	Y1	Z1	X2	Y2	Z2	X3	Y3	Z3	X4	Y4	Z4	X5	Y5	Z5	X6	Y6	Z6	X7	Y7	Z7	X8	Y8	Z8	X9	Y9	Z9	X10	Y10	Z10	X11	Y11	Z11	X12	Y12	Z12	X13	Y13	Z13	X14	Y14	Z14	X15	Y15	Z15	X16	Y16	Z16	X17	Y17	Z17	X18	Y18	Z18	X19	Y19	Z19	X20	Y20	Z20	X21	Y21	Z21	X22	Y22	Z22
34	0.5689169675090252	1.0689737294687733	-0.5769301162595699	0.0	1.0637907462720355	-0.5783857594815899	0.0	1.058927230064339	-0.6791315411265986	0.0	1.0420121814389416	-0.766092047674579	0.0	1.0666104099542608	-0.7724870924212858	0.0	1.0604462903379628	-0.7770231856612206	0.0	1.0377405657413685	-0.7748360700496874	0.0	1.0713629523831552	-0.579566254377541	0.0	1.0630763954013418	-0.6777025712483583	0.0	1.0450192342210605	-0.7639778223558461	0.0	1.079414145913447	-0.7747574845143521	0.0	1.072330511260268	-0.7716197184675294	0.0	1.0320684985349162	-0.7733338847770482	0.0	1.0666402719209003	-0.4417815606935038	0.0	1.0696138448551307	-0.3942280637119863	0.0	1.0888426190824927	-0.4169208829606033	0.0	1.059365355350681	-0.45476896117791776	0.0	1.0791417838724948	-0.3906761456818445	0.0	1.0758794266056604	-0.3282706652275497	0.0	1.0711749365576526	-0.45585884987359465	0.0	1.0835745676503512	-0.3912894083593964	0.0	1.078876979138722	-0.33401022121992396	0.0
35	0.5856498194945847	1.0691300404280193	-0.576853212333014	0.0	1.0640969218503566	-0.5783098849685498	0.0	1.0591045925799443	-0.6790355234556985	0.0	1.0421602441358684	-0.7661185413998558	0.0	1.0666019291293254	-0.7724872929014833	0.0	1.060471120778069	-0.7770744078817491	0.0	1.0379124337720436	-0.7748053788292537	0.0	1.0715579507800475	-0.5795141590996944	0.0	1.0632105202265887	-0.6776521398152979	0.0	1.0451517575405678	-0.7639731109970956	0.0	1.079663615250841	-0.7748094414257051	0.0	1.072535784277808	-0.7716820130965536	0.0	1.0322191936664566	-0.7733255980882054	0.0	1.0668116680208561	-0.4416722421797107	0.0	1.0697701851426904	-0.39405810167481015	0.0	1.0889948184713427	-0.4166912425553094	0.0	1.059593847939365	-0.45465835755788997	0.0	1.0790837191473768	-0.39053576036499676	0.0	1.0758314072067927	-0.3281538211747403	0.0	1.0712380109298938	-0.4557840013212831	0.0	1.0835858052550091	-0.3910358159143499	0.0	1.0787593090122252	-0.33374625016652115	0.0
36	0.6023826714801443	1.0692625542153746	-0.5767970436805077	0.0	1.0643939426841997	-0.5782726631153774	0.0	1.0592971694890256	-0.6789675229844678	0.0	1.0422957372064108	-0.7661976753894331	0.0	1.066656684338371	-0.7724598308955293	0.0	1.0605609473419935	-0.7771088141293465	0.0	1.0380719854269116	-0.7748211053745423	0.0	1.071728549720639	-0.579477141253804	0.0	1.063377628229937	-0.6776506061651507	0.0	1.0452534615393094	-0.7640143032161241	0.0	1.079927543430591	-0.7748083495675406	0.0	1.0727480837806975	-0.7717116933994472	0.0	1.032327313028278	-0.7733487298481051	0.0	1.0669481625153714	-0.44157474965253424	0.0	1.0699287986489145	-0.3939144540739406	0.0	1.089153964919174	-0.41648739192352824	0.0	1.0597913297257746	-0.45456620949960824	0.0	1.079055767162603	-0.3903956833036609	0.0	1.075791431740405	-0.32807674380487195	0.0	1.0712527291568525	-0.45572320636502095	0.0	1.0835963093679397	-0.3908395729521621	0.0	1.078646526260984	-0.3335426498703613	0.0
37	0.6191155234657039	1.0693743684003143	-0.5767728032798239	0.0	1.0646778926719858	-0.5782850651764376	0.0	1.0595179106503767	-0.6789289007653564	0.0	1.0424111286919435	-0.7663020170341555	0.0	1.066756222922123	-0.7723933772744075	0.0	1.060689481520163	-0.7771006748656439	0.0	1.038200744389878	-0.7748440208705797	0.0	1.0718692046934182	-0.5794663251171985	0.0	1.06357492650743	-0.6776928984099664	0.0	1.0453129968258994	-0.7640821478859021	0.0	1.080167961051273	-0.7747480788986779	0.0	1.072939239553625	-0.7717025350852791	0.0	1.0323860294439209	-0.7733657170574426	0.0	1.067063178045146	-0.44150261425867066	0.0	1.0701187174836801	-0.39380047995455775	0.0	1.0893329098651958	-0.4163243106180006	0.0	1.05995854430104	-0.45450804257902416	0.0	1.0790525876975008	-0.3902759549930114	0.0	1.0757569325183902	-0.32804903972000915	0.0	1.071240271691743	-0.4556976694931072	0.0	1.0835987435492236	-0.390712009665798	0.0	1.0785428271321	-0.3334124463501941	0.0
38	0.6358483754512635	1.0694714635738212	-0.5767933781104813	0.0	1.0649448357810347	-0.5783567672875629	0.0	1.059776010272874	-0.6789264331504332	0.0	1.0425019559350999	-0.7664150804761658	0.0	1.066883945806408	-0.772293645524215	0.0	1.0608308513673939	-0.777042394797968	0.0	1.0382829875668302	-0.7748488745484758	0.0	1.0719734136234733	-0.5794895124181351	0.0	1.0637976557933508	-0.6777765838930736	0.0	1.0453243371940824	-0.7641633907534766	0.0	1.0803491465192374	-0.7746409587608208	0.0	1.0730867804768431	-0.7716659280805009	0.0	1.0323923374454418	-0.7733559092156183	0.0	1.0671694018864077	-0.44146696622174597	0.0	1.0703559106632126	-0.393717173948696	0.0	1.0895394233444509	-0.41621172343584706	0.0	1.0600987649581737	-0.45449681851351925	0.0	1.0790686512872456	-0.39019081690677365	0.0	1.0757261968566734	-0.32807239733118815	0.0	1.071218691854778	-0.455722347861107	0.0	1.083587914076982	-0.390652925219687	0.0	1.0784464519963723	-0.33335944974040027	0.0
39	0.652581227436823	1.0695620245885806	-0.5768674465156334	0.0	1.065192443363727	-0.578492903515718	0.0	1.06007207671898	-0.6789739487667397	0.0	1.0425660653659556	-0.7665389625263531	0.0	1.067028646557287	-0.7721866580377073	0.0	1.0609668800493501	-0.7769482809243171	0.0	1.038309886516173	-0.7748329231274104	0.0	1.0720388180880254	-0.579550178486657	0.0	1.0640385863579171	-0.6779037364552624	0.0	1.0452866016824471	-0.7642557530989658	0.0	1.0804498979096566	-0.7745149540822598	0.0	1.0731806110281294	-0.7716275308740707	0.0	1.0323488201931974	-0.7733211255673395	0.0	1.0672740273501542	-0.4414756362517023	0.0	1.0706407686954853	-0.3936645716786202	0.0	1.089773899661098	-0.416154033114113	0.0	1.0602165367061633	-0.454539928988471	0.0	1.0790988118451077	-0.3901491013785255	0.0	1.07569922454381	-0.32814288096902844	0.0	1.0711974283169945	-0.4558036210865306	0.0	1.0835613016075512	-0.39065612049676346	0.0	1.0783512519136622	-0.3333795939763378	0.0
40	0.6693140794223826	1.0696554589470602	-0.5769963338246914	0.0	1.0654212558856726	-0.5786914631825189	0.0	1.0603983210947308	-0.6790838283981884	0.0	1.0426020991847098	-0.7666848487356006	0.0	1.0671812424602374	-0.7721024134638655	0.0	1.0610885793887435	-0.7768409804700658	0.0	1.0382790149309948	-0.7748037639455619	0.0	1.0720702711322105	-0.579648395757485	0.0	1.0642897176824018	-0.6780756111833068	0.0	1.0452034119475906	-0.7643617252616	0.0	1.0804691271426796	-0.7743984485546974	0.0	1.0732247063758986	-0.7716122854040665	0.0	1.0322607215533024	-0.7732725739364397	0.0	1.0673776148299172	-0.4415343541858036	0.0	1.0709617410365277	-0.3936453413323505	0.0	1.090028775858834	-0.4161527094206132	0.0	1.06031605008361	-0.4546404606064612	0.0	1.0791384371123993	-0.39015770102280445	0.0	1.075678227847197	-0.3282558847719067	0.0	1.0711815406879686	-0.4559422257193676	0.0	1.0835195635611568	-0.39070967945249757	0.0	1.0782529419839273	-0.33346378404922394	0.0
41	0.6860469314079422	1.0697614840998066	-0.5771736858645712	0.0	1.065634100560803	-0.5789424030081257	0.0	1.06074237321778	-0.6792548985871284	0.0	1.0426091064209022	-0.7668567541537955	0.0	1.067330338961249	-0.772056016195234	0.0	1.0611916201627474	-0.7767356763631509	0.0	1.038192225619668	-0.7747647785214127	0.0	1.0720802925424484	-0.5797807334112514	0.0	1.0645457861816363	-0.6782857814015442	0.0	1.0450825923279854	-0.7644786113870843	0.0	1.080422250830682	-0.7743046380049137	0.0	1.0732323140856355	-0.7716308706737658	0.0	1.0321333079277872	-0.773216418586136	0.0	1.0674770144358503	-0.4416460473753596	0.0	1.071300585946519	-0.39366530652087983	0.0	1.0902908487258862	-0.4162085414936913	0.0	1.0603996968473226	-0.45479955808066436	0.0	1.0791834590446734	-0.39022284685288994	0.0	1.0756671218144422	-0.32840951811674585	0.0	1.0711800077531857	-0.45613526358482626	0.0	1.0834672718046028	-0.3907959155376242	0.0	1.0781544010852424	-0.33360095621191976	0.0
42	0.7027797833935017	1.069889169812088	-0.5773863208763145	0.0	1.065832704630449	-0.579227848393368	0.0	1.061091921351762	-0.679467531806136	0.0	1.0425886790310788	-0.7670430331763473	0.0	1.0674637604309487	-0.7720415600797893	0.0	1.0612729940898171	-0.7766343026382369	0.0	1.0380563616575016	-0.774712610714012	0.0	1.0720887874133571	-0.5799384490691427	0.0	1.0648056952892446	-0.6785176314683075	0.0	1.0449365085890456	-0.7645944423850206	0.0	1.0803351832786476	-0.7742267919061755	0.0	1.0732205522081353	-0.7716759043377015	0.0	1.031974016486304	-0.7731514069094576	0.0	1.0675703480302707	-0.441807549188286	0.0	1.0716373097400957	-0.3937279296024971	0.0	1.0905462521515208	-0.41632044981456684	0.0	1.0604668907902053	-0.4550149968227221	0.0	1.0792302250722445	-0.39034725040220897	0.0	1.0756688601768754	-0.32860448858769137	0.0	1.0712119388424786	-0.4563734273808403	0.0	1.0834136388788103	-0.3908952372620026	0.0	1.0780668659974717	-0.3337794051923861	0.0
43	0.7195126353790613	1.0700458442309226	-0.577617067209601	0.0	1.066016522638489	-0.579524233395834	0.0	1.061438257115673	-0.6796898856428	0.0	1.0425465638892497	-0.7672196518670352	0.0	1.0675701120551264	-0.772040659415462	0.0	1.0613288968131211	-0.77653066129606	0.0	1.0378827120413985	-0.7746416142656686	0.0	1.0721218963448944	-0.5801077754977053	0.0	1.0650709012123516	-0.6787471514935938	0.0	1.044781931509751	-0.7646917760575507	0.0	1.080236787942603	-0.7741462849184277	0.0	1.0732062913921956	-0.7717267910240214	0.0	1.0317952636812915	-0.7730734592133705	0.0	1.0676600331358026	-0.44200831737030466	0.0	1.0719549457174349	-0.3938303004469908	0.0	1.0907862209924342	-0.4164824205376668	0.0	1.060514135948117	-0.4552775667895	0.0	1.0792752040870064	-0.39052861572214415	0.0	1.0756836197639852	-0.3288409453073923	0.0	1.0713065333577603	-0.4566401209698696	0.0	1.0833721912704102	-0.39099262048508615	0.0	1.0780069727756847	-0.33398795276795434	0.0
